<svg id="Слой_1" data-name="Слой 1" xmlns="http://www.w3.org/2000/svg" viewBox="0 0 21 24"><defs><style>.cls-1{fill:#c7cdd9;}</style></defs><title>2</title><path class="cls-1" d="M4,7H7V4H4Zm0,6.5H7v-3H4ZM4,20H7V17H4ZM19.5,6H11V1.5A1.5,1.5,0,0,0,9.5,0h-8A1.5,1.5,0,0,0,0,1.5v21A1.5,1.5,0,0,0,1.5,24h18A1.5,1.5,0,0,0,21,22.5V7.5A1.5,1.5,0,0,0,19.5,6ZM10,7.5v15a.5.5,0,0,1-.5.5h-8a.5.5,0,0,1-.5-.5V1.5A.5.5,0,0,1,1.5,1h8a.5.5,0,0,1,.5.5Zm10,15a.5.5,0,0,1-.5.5h-8a.5.5,0,0,1-.5-.5V7.5a.5.5,0,0,1,.5-.5h8a.5.5,0,0,1,.5.5Zm-6-9h3v-3H14ZM14,20h3V17H14Z"/></svg>