<svg id="Слой_1" data-name="Слой 1" xmlns="http://www.w3.org/2000/svg" viewBox="0 0 23.88 23"><defs><style>.cls-1{fill:#c7cdd9;}</style></defs><title>home</title><path class="cls-1" d="M19.46,12.7c-.39,0-.58.31-.58.71V22h-4V17.63a.69.69,0,0,0-.67-.69H9.57a.71.71,0,0,0-.71.69V22h-4V13.33c0-.37,0-.62-.39-.62a.57.57,0,0,0-.6.62v9a.68.68,0,0,0,.67.68h4.7a.68.68,0,0,0,.67-.68v-4.2h4v4.2a.69.69,0,0,0,.69.68h4.63a.68.68,0,0,0,.67-.68V13.41C19.9,13,19.83,12.7,19.46,12.7Zm4.31-.85L17.91,6V1.8c0-.4-.11-.57-.5-.57s-.53.2-.53.59v3L12.4.22A.66.66,0,0,0,11.93,0a.68.68,0,0,0-.49.22L.09,11.77c-.27.28.16.55.45.8s.81-.28,1.09-.56l10.27-11L22.58,12.37a.86.86,0,0,0,.54.28c.19,0,.2.07.34,0S24,12.13,23.77,11.85Z"/></svg>