<svg id="Слой_1" data-name="Слой 1" xmlns="http://www.w3.org/2000/svg" viewBox="0 0 24.01 23.64"><defs><style>.cls-1{fill:#c7cdd9;}</style></defs><title>Монтажная область 1</title><path class="cls-1" d="M24,2.37C24-.24,24.26,0,21.61,0H2.41C-.24,0,0-.24,0,2.37v18.9c0,2.61-.25,2.36,2.4,2.36h19.2c2.65,0,2.4.25,2.4-2.36ZM23,22.8H1V.81H23Zm-11.9-4h1.76v-2H11.1ZM10,8.78a2.37,2.37,0,0,1,.44-.88,2,2,0,0,1,.69-.61,1.78,1.78,0,0,1,.92-.2,2.52,2.52,0,0,1,1.66.52,2.11,2.11,0,0,1,.48,1.46A2.27,2.27,0,0,1,13.41,11c-.22.26-1.15,1.15-1.36,1.4a3.68,3.68,0,0,0-.55.88,3.32,3.32,0,0,0-.29,1.23v.88H13v-.66a2.76,2.76,0,0,1,.13-.87,2.7,2.7,0,0,1,.35-.65c.14-.2.14-.38.32-.56s.44-.35.63-.52.44-.37.62-.56a3.42,3.42,0,0,0,.37-.63c.14-.23.08-.48.17-.76a3.11,3.11,0,0,0,.23-.94,3.67,3.67,0,0,0-.23-1.44,3.16,3.16,0,0,0-.77-1.1,4,4,0,0,0-1.22-.79,4.53,4.53,0,0,0-1.48-.19A4,4,0,0,0,10.46,6a3.13,3.13,0,0,0-1.13.88,4.35,4.35,0,0,0-.76,1.41,4,4,0,0,0-.21,1.53H9.87A3.56,3.56,0,0,1,10,8.78Z"/></svg>