<svg id="Слой_1" data-name="Слой 1" xmlns="http://www.w3.org/2000/svg" viewBox="0 0 26 22"><defs><style>.cls-1{fill:none;fill-rule:evenodd;}</style></defs><title>messaging</title><path class="cls-1" d="M25,19H20c0,1,0,2.47,0,2.61s-.68.51-1,.29A11.15,11.15,0,0,1,16.94,19H12c-.83,0-1-.32-1-1.15V17l1,0,0,1h5.92L19,20V18h6V9H19V8H24.5c.83,0,1.5.33,1.5,1.16v8.65C26,18.69,25.82,19,25,19ZM11,17H9.4c-.69.61-2,1.73-2.67,2.31A.7.7,0,0,1,5.81,19c0-.14,0-1.06,0-2H1.12C.3,17,0,16.68,0,15.85V1.1C0,.27.14,0,1,0h17c.83,0,1,.24,1,1.07V15.23A1.82,1.82,0,0,1,17.39,17H11C10.93,17,10.91,17,11,17ZM18,16,18,1H1V16H6.95v2l2-2Zm-13.3-4.4v0A.54.54,0,0,1,5.17,11h9.07a.56.56,0,0,1,.51.56v0a.46.46,0,0,1-.51.44H5.17A.46.46,0,0,1,4.65,11.58ZM12,6H5.17a.46.46,0,0,1-.51-.44v0A.54.54,0,0,1,5.17,5H12a.56.56,0,0,1,.51.56v0A.46.46,0,0,1,12,6ZM5.17,8H9.74a.53.53,0,0,1,.51.53v0A.46.46,0,0,1,9.74,9H5.17a.46.46,0,0,1-.51-.44v0A.51.51,0,0,1,5.17,8Z"/></svg>