<svg id="Слой_1" data-name="Слой 1" xmlns="http://www.w3.org/2000/svg" viewBox="0 0 24 24"><defs><style>.cls-1{fill:none;fill-rule:evenodd;}</style></defs><title>notifications</title><path class="cls-1" d="M23.92,20.67a.7.7,0,0,1-.64.37H.73a.7.7,0,0,1-.64-.37A1.29,1.29,0,0,1,0,20.18a.71.71,0,0,1,.14-.4,16.35,16.35,0,0,0,2.11-4.37A31.86,31.86,0,0,0,4,9c.22-1.69.47-3.39,1.24-4.3A7.42,7.42,0,0,1,6.57,3.45,8.25,8.25,0,0,1,9.33,2.12,2.59,2.59,0,0,1,10.28.61,2.67,2.67,0,0,1,12,0a2.7,2.7,0,0,1,1.73.61,2.57,2.57,0,0,1,1,1.51,8.24,8.24,0,0,1,2.75,1.33,7.39,7.39,0,0,1,1.34,1.24,8,8,0,0,1,1.7,4,42.56,42.56,0,0,0,1.28,6.67,17.09,17.09,0,0,0,2.12,4.53.67.67,0,0,1,.13.39A.85.85,0,0,1,23.92,20.67Zm-3.76-5.59A52.52,52.52,0,0,1,19,8.92a6.67,6.67,0,0,0-1.44-3.41,6,6,0,0,0-1.17-1,7.23,7.23,0,0,0-2.57-1.1.72.72,0,0,1-.56-.69v0A1.26,1.26,0,0,0,12,1.43a1.27,1.27,0,0,0-1.28,1.24v0a.69.69,0,0,1-.54.69,7.32,7.32,0,0,0-2.58,1.1A6,6,0,0,0,5,8.92,57.23,57.23,0,0,1,3.84,15.1,21.27,21.27,0,0,1,2,20H22A21.85,21.85,0,0,1,20.16,15.09ZM13.5,23.37A2,2,0,0,1,12,24a2.07,2.07,0,0,1-1.52-.63,2,2,0,0,1-.63-1.48h4.27A2,2,0,0,1,13.5,23.37Z"/></svg>